<svg width="663" height="233" viewBox="0 0 663 233" fill="none" xmlns="http://www.w3.org/2000/svg">
<path d="M50.65 179.4C31.45 179.4 16.45 171.45 9.55 156.45L32.65 144.9C35.5 151.05 41.2 153.9 50.65 153.9C58 153.9 63.55 151.65 63.55 146.85C63.55 140.85 57.55 139.95 48.4 138.6C33.25 136.35 11.05 130.5 11.05 106.35C11.05 87.75 27.7 73.5 50.2 73.5C67.9 73.5 82.9 81.45 89.8 96.45L66.7 108C63.85 103.05 58.45 99 49 99C42.4 99 38.8 101.1 38.8 105.3C38.8 111 45.4 112.8 55.3 114.3C70.3 116.55 91.3 122.25 91.3 146.55C91.3 165.15 73.15 179.4 50.65 179.4ZM107.518 67.5H134.518V177H107.518V67.5ZM186.314 179.25C164.414 179.25 149.564 161.25 149.564 139.35C149.564 117.6 167.414 99.6 190.814 99.6C214.814 99.6 232.064 116.4 232.064 139.35V177H206.564V171.45C201.764 176.4 195.014 179.25 186.314 179.25ZM190.814 153.9C199.364 153.9 205.064 147.3 205.064 139.5C205.064 131.55 199.364 124.95 190.814 124.95C182.264 124.95 176.564 131.55 176.564 139.5C176.564 147.3 182.264 153.9 190.814 153.9ZM284.997 213.9C265.497 213.9 252.447 205.65 245.547 190.95L267.897 178.95C270.297 184.05 275.247 189.3 284.547 189.3C294.297 189.3 300.747 182.85 301.497 171.9C297.597 175.95 292.047 177.75 284.697 177.75C259.347 177.75 248.997 161.7 248.997 139.2V102H275.547V138.6C275.547 146.85 280.347 152.4 288.297 152.4C294.897 152.4 301.047 146.85 301.047 138.6V102H328.497V169.8C328.497 196.8 309.897 213.9 284.997 213.9ZM384.027 179.25C360.627 179.25 342.777 161.25 342.777 139.35C342.777 117.6 360.627 99.6 384.027 99.6C407.427 99.6 425.277 117.6 425.277 139.35C425.277 161.25 407.427 179.25 384.027 179.25ZM384.027 153.9C392.577 153.9 398.277 147.3 398.277 139.5C398.277 131.55 392.577 124.95 384.027 124.95C375.477 124.95 369.777 131.55 369.777 139.5C369.777 147.3 375.477 153.9 384.027 153.9ZM450.115 162.3L428.365 102H457.165L473.065 148.95L488.965 102H517.765L495.565 162.3C491.365 173.7 483.865 179.4 473.065 179.4C462.265 179.4 454.315 173.7 450.115 162.3ZM562.756 179.1C538.756 179.1 520.756 163.2 520.756 138.6C520.756 117 536.956 99 560.656 99C585.256 99 598.906 117.3 598.906 137.4V144.15H546.706C548.506 151.65 554.206 156.15 562.456 156.15C569.656 156.15 575.356 152.25 578.056 146.4L598.756 156.75C592.306 170.7 579.556 179.1 562.756 179.1ZM547.906 130.2H572.056C570.856 126 566.656 122.1 560.356 122.1C553.906 122.1 549.556 125.85 547.906 130.2ZM639.379 177H612.379V135.45C612.379 115.5 623.779 99.6 648.229 99.6C653.329 99.6 658.879 100.5 662.629 102.15V128.1C659.029 126.15 654.529 125.1 650.779 125.1C643.729 125.1 639.379 129.15 639.379 136.35V177Z" fill="#AD36B3" fill-opacity="0.25"/>
<path d="M46.65 178.4C27.45 178.4 12.45 170.45 5.55 155.45L28.65 143.9C31.5 150.05 37.2 152.9 46.65 152.9C54 152.9 59.55 150.65 59.55 145.85C59.55 139.85 53.55 138.95 44.4 137.6C29.25 135.35 7.05 129.5 7.05 105.35C7.05 86.75 23.7 72.5 46.2 72.5C63.9 72.5 78.9 80.45 85.8 95.45L62.7 107C59.85 102.05 54.45 98 45 98C38.4 98 34.8 100.1 34.8 104.3C34.8 110 41.4 111.8 51.3 113.3C66.3 115.55 87.3 121.25 87.3 145.55C87.3 164.15 69.15 178.4 46.65 178.4ZM103.518 66.5H130.518V176H103.518V66.5ZM182.314 178.25C160.414 178.25 145.564 160.25 145.564 138.35C145.564 116.6 163.414 98.6 186.814 98.6C210.814 98.6 228.064 115.4 228.064 138.35V176H202.564V170.45C197.764 175.4 191.014 178.25 182.314 178.25ZM186.814 152.9C195.364 152.9 201.064 146.3 201.064 138.5C201.064 130.55 195.364 123.95 186.814 123.95C178.264 123.95 172.564 130.55 172.564 138.5C172.564 146.3 178.264 152.9 186.814 152.9ZM280.997 212.9C261.497 212.9 248.447 204.65 241.547 189.95L263.897 177.95C266.297 183.05 271.247 188.3 280.547 188.3C290.297 188.3 296.747 181.85 297.497 170.9C293.597 174.95 288.047 176.75 280.697 176.75C255.347 176.75 244.997 160.7 244.997 138.2V101H271.547V137.6C271.547 145.85 276.347 151.4 284.297 151.4C290.897 151.4 297.047 145.85 297.047 137.6V101H324.497V168.8C324.497 195.8 305.897 212.9 280.997 212.9ZM380.027 178.25C356.627 178.25 338.777 160.25 338.777 138.35C338.777 116.6 356.627 98.6 380.027 98.6C403.427 98.6 421.277 116.6 421.277 138.35C421.277 160.25 403.427 178.25 380.027 178.25ZM380.027 152.9C388.577 152.9 394.277 146.3 394.277 138.5C394.277 130.55 388.577 123.95 380.027 123.95C371.477 123.95 365.777 130.55 365.777 138.5C365.777 146.3 371.477 152.9 380.027 152.9ZM446.115 161.3L424.365 101H453.165L469.065 147.95L484.965 101H513.765L491.565 161.3C487.365 172.7 479.865 178.4 469.065 178.4C458.265 178.4 450.315 172.7 446.115 161.3ZM558.756 178.1C534.756 178.1 516.756 162.2 516.756 137.6C516.756 116 532.956 98 556.656 98C581.256 98 594.906 116.3 594.906 136.4V143.15H542.706C544.506 150.65 550.206 155.15 558.456 155.15C565.656 155.15 571.356 151.25 574.056 145.4L594.756 155.75C588.306 169.7 575.556 178.1 558.756 178.1ZM543.906 129.2H568.056C566.856 125 562.656 121.1 556.356 121.1C549.906 121.1 545.556 124.85 543.906 129.2ZM635.379 176H608.379V134.45C608.379 114.5 619.779 98.6 644.229 98.6C649.329 98.6 654.879 99.5 658.629 101.15V127.1C655.029 125.15 650.529 124.1 646.779 124.1C639.729 124.1 635.379 128.15 635.379 135.35V176Z" fill="url(#paint0_linear_3_123)"/>
<path d="M327.513 50.4438V50.4447C326.301 51.6552 326.912 53.5985 329.846 57.8686C331.569 60.3764 333.627 62.9345 334.286 63.5937L350.41 79.7162C351.289 80.5951 352.443 81.0346 353.597 81.0346C354.752 81.0346 355.906 80.5952 356.785 79.7168C357.634 78.8671 358.102 77.7353 358.102 76.5283C358.102 75.3213 357.634 74.1899 356.785 73.3408L340.661 57.217C340.003 56.5578 337.446 54.5002 334.936 52.777C330.665 49.8415 328.721 49.2316 327.513 50.443V50.4438ZM338.54 59.3388L354.664 75.4625C354.946 75.7447 355.102 76.1232 355.102 76.5279C355.102 76.9327 354.946 77.3116 354.664 77.5943C354.075 78.1817 353.12 78.1817 352.531 77.5943L336.407 61.4718C335.339 60.404 332.165 56.1881 330.696 53.6266C333.258 55.0958 337.472 58.2706 338.54 59.338L338.54 59.3388Z" fill="url(#paint1_linear_3_123)"/>
<path d="M348.11 63.2725C348.454 63.6172 348.89 63.7774 349.32 63.7774C350.033 63.7774 350.731 63.337 350.97 62.5655L353.285 47.4592C353.474 46.8494 353.31 46.1849 352.858 45.7336L348.439 41.3146C348.095 40.9704 347.659 40.8097 347.229 40.8097C346.516 40.8097 345.819 41.2501 345.58 42.0216L341.458 55.3204C341.269 55.9302 341.433 56.5948 341.885 57.046L348.11 63.2725ZM347.818 44.935L350.262 47.3799L348.428 59.3471L344.552 55.4711L347.818 44.935Z" fill="url(#paint2_linear_3_123)"/>
<path d="M332.845 64.3662C332.675 64.3662 332.503 64.3916 332.336 64.4434L319.037 68.5655C317.8 68.9488 317.414 70.5099 318.33 71.4254L322.749 75.8444C323.077 76.172 323.516 76.3483 323.966 76.3483C324.136 76.3483 324.308 76.3229 324.475 76.2711L339.581 73.9558C340.818 73.5725 341.204 72.0114 340.288 71.0959L334.063 64.8708C333.735 64.5426 333.296 64.3664 332.846 64.3664L332.845 64.3662ZM324.395 73.2481L321.95 70.8032L332.486 67.5376L336.362 71.4131L324.395 73.2481Z" fill="url(#paint3_linear_3_123)"/>
<path d="M319.782 52.1825L321.864 52.7328C322.156 52.8099 322.453 52.848 322.748 52.848C323.654 52.848 324.538 52.4916 325.195 51.8343L328.647 48.3827C329.518 47.5116 329.86 46.2431 329.545 45.0517L328.995 42.9697C328.564 41.3388 327.118 40.3921 325.636 40.3921C324.773 40.3921 323.898 40.7134 323.203 41.4077L318.22 46.3911C316.333 48.2783 317.202 51.5009 319.782 52.1825ZM320.342 48.5126L325.324 43.5297C325.419 43.435 325.515 43.3925 325.636 43.3925C325.697 43.3925 326.007 43.4091 326.094 43.7373L326.645 45.8193C326.686 45.977 326.641 46.1464 326.526 46.2621L323.074 49.7138C322.987 49.8007 322.871 49.8485 322.749 49.8485C322.709 49.8485 322.67 49.8431 322.632 49.8334L320.55 49.2831C320.486 49.266 320.292 49.2152 320.223 48.9584C320.153 48.7006 320.295 48.559 320.342 48.5126Z" fill="url(#paint4_linear_3_123)"/>
<path d="M415.745 63.0588C412.811 67.3288 412.2 69.2716 413.411 70.4831C413.797 70.8689 414.257 71.07 414.843 71.07C416.095 71.07 417.925 70.1496 420.835 68.1502C423.346 66.4255 425.902 64.3679 426.56 63.7098L442.684 47.5873C444.441 45.8295 444.441 42.9692 442.684 41.2108C440.983 39.513 438.005 39.515 436.309 41.2118L420.185 57.3343C419.526 57.9934 417.468 60.5505 415.745 63.0594L415.745 63.0588ZM438.43 43.3313C438.713 43.0485 439.091 42.8933 439.496 42.8933C439.901 42.8933 440.28 43.049 440.563 43.3313C441.15 43.9191 441.15 44.8766 440.563 45.465L424.438 61.5888C423.373 62.6561 419.157 65.831 416.595 67.3001C418.064 64.7391 421.239 60.5223 422.306 59.4549L438.43 43.3313Z" fill="url(#paint5_linear_3_123)"/>
<path d="M404.989 52.4163L418.287 56.5379C418.455 56.5896 418.626 56.615 418.797 56.615C419.246 56.615 419.686 56.4388 420.013 56.1111L426.239 49.886C427.154 48.9705 426.768 47.4095 425.531 47.0261L410.426 44.7108C410.259 44.659 410.087 44.6336 409.917 44.6336C409.467 44.6336 409.028 44.8099 408.7 45.1375L404.281 49.5565C403.365 50.472 403.752 52.033 404.988 52.4164L404.989 52.4163ZM410.346 47.7336L422.314 49.5681L418.438 53.4436L407.902 50.178L410.346 47.7336Z" fill="url(#paint6_linear_3_123)"/>
<path d="M435.275 57.2038C434.845 57.2038 434.409 57.3639 434.064 57.7087L427.839 63.9338C427.388 64.3854 427.223 65.0495 427.412 65.6594L431.534 78.9582C431.773 79.7296 432.47 80.1701 433.183 80.1701C433.613 80.1701 434.049 80.0099 434.393 79.6652L438.812 75.2462C439.264 74.7945 439.428 74.1305 439.239 73.5206L436.924 58.4143C436.685 57.6433 435.988 57.2029 435.275 57.2029L435.275 57.2038ZM433.772 76.045L430.507 65.5084L434.382 61.6329L436.217 73.6001L433.772 76.045Z" fill="url(#paint7_linear_3_123)"/>
<path d="M409.357 79.775C410.052 80.4694 410.927 80.7906 411.79 80.7906C413.272 80.7906 414.718 79.8434 415.149 78.213L415.699 76.131C416.014 74.9401 415.672 73.671 414.801 72.8L411.349 69.3484C410.692 68.6912 409.808 68.3347 408.902 68.3347C408.608 68.3347 408.311 68.3723 408.018 68.45L405.937 69.0002C403.357 69.6824 402.487 72.9045 404.375 74.7917L409.357 79.775ZM406.704 71.9005L408.785 71.3502C408.824 71.34 408.863 71.3351 408.903 71.3351C409.026 71.3351 409.141 71.3829 409.228 71.4699L412.68 74.9215C412.795 75.0367 412.841 75.2061 412.799 75.3644L412.249 77.4464C412.162 77.7745 411.852 77.7911 411.79 77.7911C411.669 77.7911 411.573 77.7491 411.479 77.6544L406.496 72.6715C406.449 72.6251 406.307 72.483 406.377 72.2267C406.446 71.9688 406.64 71.9176 406.704 71.9005Z" fill="url(#paint8_linear_3_123)"/>
<path d="M361.5 86.1212C361.793 86.4142 362.177 86.5607 362.561 86.5607C362.944 86.5607 363.328 86.4142 363.621 86.1212C364.207 85.5353 364.207 84.5861 363.621 84.0001L362.561 82.9396C361.975 82.3536 361.025 82.3536 360.439 82.9396C359.853 83.5255 359.854 84.4747 360.439 85.0607L361.5 86.1212Z" fill="url(#paint9_linear_3_123)"/>
<path d="M366.942 91.5625C367.235 91.8555 367.619 92.002 368.003 92.002C368.387 92.002 368.771 91.8555 369.064 91.5625C369.649 90.9766 369.649 90.0274 369.064 89.4414L366.887 87.2646C366.301 86.6787 365.352 86.6787 364.766 87.2646C364.18 87.8506 364.18 88.7998 364.766 89.3858L366.942 91.5625Z" fill="url(#paint10_linear_3_123)"/>
<path d="M371.266 95.8875C371.559 96.1805 371.943 96.327 372.327 96.327C372.711 96.327 373.094 96.1805 373.387 95.8875C373.973 95.3016 373.973 94.3524 373.387 93.7664L372.327 92.7058C371.741 92.1199 370.792 92.1199 370.206 92.7058C369.62 93.2918 369.62 94.241 370.206 94.827L371.266 95.8875Z" fill="url(#paint11_linear_3_123)"/>
<path d="M399.766 86.56C400.15 86.56 400.534 86.4135 400.827 86.1205L401.887 85.06C402.473 84.4741 402.473 83.5249 401.887 82.9389C401.301 82.3529 400.352 82.3529 399.766 82.9389L398.706 83.9994C398.12 84.5854 398.12 85.5345 398.706 86.1205C398.999 86.4135 399.382 86.56 399.766 86.56Z" fill="url(#paint12_linear_3_123)"/>
<path d="M394.324 92.0025C394.708 92.0025 395.091 91.856 395.384 91.5631L397.561 89.3863C398.147 88.8004 398.147 87.8512 397.561 87.2652C396.975 86.6792 396.026 86.6793 395.44 87.2652L393.263 89.4419C392.677 90.0279 392.677 90.9771 393.263 91.5631C393.556 91.8555 393.94 92.0025 394.324 92.0025Z" fill="url(#paint13_linear_3_123)"/>
<path d="M390 96.3263C390.384 96.3263 390.768 96.1798 391.061 95.8868L392.121 94.8263C392.707 94.2403 392.707 93.2911 392.121 92.7051C391.535 92.1191 390.586 92.1192 390 92.7051L388.939 93.7657C388.354 94.3516 388.354 95.3008 388.939 95.8868C389.232 96.1798 389.616 96.3263 390 96.3263Z" fill="url(#paint14_linear_3_123)"/>
<defs>
<linearGradient id="paint0_linear_3_123" x1="328.5" y1="22" x2="328.5" y2="232" gradientUnits="userSpaceOnUse">
<stop offset="0.275" stop-color="#EC61F3"/>
<stop offset="1" stop-color="#6FFFCB" stop-opacity="0.855"/>
</linearGradient>
<linearGradient id="paint1_linear_3_123" x1="342.514" y1="49.8561" x2="342.514" y2="81.0346" gradientUnits="userSpaceOnUse">
<stop stop-color="#EC61F3"/>
<stop offset="0.0001" stop-color="#B736BE"/>
<stop offset="0.841" stop-color="#7BDFC9" stop-opacity="0.878033"/>
<stop offset="0.9998" stop-color="#6FFFCB" stop-opacity="0.855"/>
<stop offset="0.9999" stop-color="#6FFFCB" stop-opacity="0.0493768"/>
<stop offset="1" stop-color="#AC36B2" stop-opacity="0"/>
</linearGradient>
<linearGradient id="paint2_linear_3_123" x1="347.372" y1="40.8097" x2="347.372" y2="63.7774" gradientUnits="userSpaceOnUse">
<stop stop-color="#EC61F3"/>
<stop offset="0.0001" stop-color="#B736BE"/>
<stop offset="0.841" stop-color="#7BDFC9" stop-opacity="0.878033"/>
<stop offset="0.9998" stop-color="#6FFFCB" stop-opacity="0.855"/>
<stop offset="0.9999" stop-color="#6FFFCB" stop-opacity="0.0493768"/>
<stop offset="1" stop-color="#AC36B2" stop-opacity="0"/>
</linearGradient>
<linearGradient id="paint3_linear_3_123" x1="329.309" y1="64.3662" x2="329.309" y2="76.3483" gradientUnits="userSpaceOnUse">
<stop stop-color="#EC61F3"/>
<stop offset="0.0001" stop-color="#B736BE"/>
<stop offset="0.841" stop-color="#7BDFC9" stop-opacity="0.878033"/>
<stop offset="0.9998" stop-color="#6FFFCB" stop-opacity="0.855"/>
<stop offset="0.9999" stop-color="#6FFFCB" stop-opacity="0.0493768"/>
<stop offset="1" stop-color="#AC36B2" stop-opacity="0"/>
</linearGradient>
<linearGradient id="paint4_linear_3_123" x1="323.432" y1="40.3921" x2="323.432" y2="52.848" gradientUnits="userSpaceOnUse">
<stop stop-color="#EC61F3"/>
<stop offset="0.0001" stop-color="#B736BE"/>
<stop offset="0.841" stop-color="#7BDFC9" stop-opacity="0.878033"/>
<stop offset="0.9998" stop-color="#6FFFCB" stop-opacity="0.855"/>
<stop offset="0.9999" stop-color="#6FFFCB" stop-opacity="0.0493768"/>
<stop offset="1" stop-color="#AC36B2" stop-opacity="0"/>
</linearGradient>
<linearGradient id="paint5_linear_3_123" x1="428.413" y1="39.9384" x2="428.413" y2="71.07" gradientUnits="userSpaceOnUse">
<stop stop-color="#EC61F3"/>
<stop offset="0.0001" stop-color="#B736BE"/>
<stop offset="0.841" stop-color="#7BDFC9" stop-opacity="0.878033"/>
<stop offset="0.9998" stop-color="#6FFFCB" stop-opacity="0.855"/>
<stop offset="0.9999" stop-color="#6FFFCB" stop-opacity="0.0493768"/>
<stop offset="1" stop-color="#AC36B2" stop-opacity="0"/>
</linearGradient>
<linearGradient id="paint6_linear_3_123" x1="415.26" y1="44.6336" x2="415.26" y2="56.615" gradientUnits="userSpaceOnUse">
<stop stop-color="#EC61F3"/>
<stop offset="0.0001" stop-color="#B736BE"/>
<stop offset="0.841" stop-color="#7BDFC9" stop-opacity="0.878033"/>
<stop offset="0.9998" stop-color="#6FFFCB" stop-opacity="0.855"/>
<stop offset="0.9999" stop-color="#6FFFCB" stop-opacity="0.0493768"/>
<stop offset="1" stop-color="#AC36B2" stop-opacity="0"/>
</linearGradient>
<linearGradient id="paint7_linear_3_123" x1="433.326" y1="57.2029" x2="433.326" y2="80.1701" gradientUnits="userSpaceOnUse">
<stop stop-color="#EC61F3"/>
<stop offset="0.0001" stop-color="#B736BE"/>
<stop offset="0.841" stop-color="#7BDFC9" stop-opacity="0.878033"/>
<stop offset="0.9998" stop-color="#6FFFCB" stop-opacity="0.855"/>
<stop offset="0.9999" stop-color="#6FFFCB" stop-opacity="0.0493768"/>
<stop offset="1" stop-color="#AC36B2" stop-opacity="0"/>
</linearGradient>
<linearGradient id="paint8_linear_3_123" x1="409.587" y1="68.3347" x2="409.587" y2="80.7906" gradientUnits="userSpaceOnUse">
<stop stop-color="#EC61F3"/>
<stop offset="0.0001" stop-color="#B736BE"/>
<stop offset="0.841" stop-color="#7BDFC9" stop-opacity="0.878033"/>
<stop offset="0.9998" stop-color="#6FFFCB" stop-opacity="0.855"/>
<stop offset="0.9999" stop-color="#6FFFCB" stop-opacity="0.0493768"/>
<stop offset="1" stop-color="#AC36B2" stop-opacity="0"/>
</linearGradient>
<linearGradient id="paint9_linear_3_123" x1="362.03" y1="82.5001" x2="362.03" y2="86.5607" gradientUnits="userSpaceOnUse">
<stop stop-color="#EC61F3"/>
<stop offset="0.0001" stop-color="#B736BE"/>
<stop offset="0.841" stop-color="#7BDFC9" stop-opacity="0.878033"/>
<stop offset="0.9998" stop-color="#6FFFCB" stop-opacity="0.855"/>
<stop offset="0.9999" stop-color="#6FFFCB" stop-opacity="0.0493768"/>
<stop offset="1" stop-color="#AC36B2" stop-opacity="0"/>
</linearGradient>
<linearGradient id="paint10_linear_3_123" x1="366.915" y1="86.8252" x2="366.915" y2="92.002" gradientUnits="userSpaceOnUse">
<stop stop-color="#EC61F3"/>
<stop offset="0.0001" stop-color="#B736BE"/>
<stop offset="0.841" stop-color="#7BDFC9" stop-opacity="0.878033"/>
<stop offset="0.9998" stop-color="#6FFFCB" stop-opacity="0.855"/>
<stop offset="0.9999" stop-color="#6FFFCB" stop-opacity="0.0493768"/>
<stop offset="1" stop-color="#AC36B2" stop-opacity="0"/>
</linearGradient>
<linearGradient id="paint11_linear_3_123" x1="371.796" y1="92.2664" x2="371.796" y2="96.327" gradientUnits="userSpaceOnUse">
<stop stop-color="#EC61F3"/>
<stop offset="0.0001" stop-color="#B736BE"/>
<stop offset="0.841" stop-color="#7BDFC9" stop-opacity="0.878033"/>
<stop offset="0.9998" stop-color="#6FFFCB" stop-opacity="0.855"/>
<stop offset="0.9999" stop-color="#6FFFCB" stop-opacity="0.0493768"/>
<stop offset="1" stop-color="#AC36B2" stop-opacity="0"/>
</linearGradient>
<linearGradient id="paint12_linear_3_123" x1="400.296" y1="82.4994" x2="400.296" y2="86.56" gradientUnits="userSpaceOnUse">
<stop stop-color="#EC61F3"/>
<stop offset="0.0001" stop-color="#B736BE"/>
<stop offset="0.841" stop-color="#7BDFC9" stop-opacity="0.878033"/>
<stop offset="0.9998" stop-color="#6FFFCB" stop-opacity="0.855"/>
<stop offset="0.9999" stop-color="#6FFFCB" stop-opacity="0.0493768"/>
<stop offset="1" stop-color="#AC36B2" stop-opacity="0"/>
</linearGradient>
<linearGradient id="paint13_linear_3_123" x1="395.412" y1="86.8257" x2="395.412" y2="92.0025" gradientUnits="userSpaceOnUse">
<stop stop-color="#EC61F3"/>
<stop offset="0.0001" stop-color="#B736BE"/>
<stop offset="0.841" stop-color="#7BDFC9" stop-opacity="0.878033"/>
<stop offset="0.9998" stop-color="#6FFFCB" stop-opacity="0.855"/>
<stop offset="0.9999" stop-color="#6FFFCB" stop-opacity="0.0493768"/>
<stop offset="1" stop-color="#AC36B2" stop-opacity="0"/>
</linearGradient>
<linearGradient id="paint14_linear_3_123" x1="390.53" y1="92.2657" x2="390.53" y2="96.3263" gradientUnits="userSpaceOnUse">
<stop stop-color="#EC61F3"/>
<stop offset="0.0001" stop-color="#B736BE"/>
<stop offset="0.841" stop-color="#7BDFC9" stop-opacity="0.878033"/>
<stop offset="0.9998" stop-color="#6FFFCB" stop-opacity="0.855"/>
<stop offset="0.9999" stop-color="#6FFFCB" stop-opacity="0.0493768"/>
<stop offset="1" stop-color="#AC36B2" stop-opacity="0"/>
</linearGradient>
</defs>
</svg>
