<?xml version="1.0" encoding="UTF-8"?>
<svg width="1200pt" height="1200pt" version="1.1" viewBox="0 0 1200 1200" xmlns="http://www.w3.org/2000/svg">
 <g fill="#4c1c95">
  <path d="m1044.1 556.29v89.062c0 21.328-17.344 39.023-38.672 39.023h-322.27v321.91c0 21.328-17.344 39.023-38.672 39.023h-89.062c-21.328 0-38.672-17.695-38.672-39.023v-321.91h-322.27c-21.328 0-38.672-17.695-38.672-39.023v-89.062c0-21.328 17.344-38.32 38.672-38.32h322.27v-322.62c0-21.328 17.344-38.32 38.672-38.32h89.062c21.328 0 38.672 16.992 38.672 38.32v322.62h322.27c21.328 0 38.672 16.992 38.672 38.32z"/>
  <path d="m1020.7 556.29c0 29.531 0.46875 59.062 0 88.711 0 0.70312 0.11719 3.6328-0.11719 3.6328-0.23438 0 0.9375-4.9219 0.35156-2.2266-0.23438 0.70312-0.35156 1.5234-0.46875 2.3438-0.23438 1.0547-0.58594 1.9922-0.9375 3.0469-1.0547 3.75 0.46875-1.4062 0.58594-1.2891 0.23437 0.11719-2.1094 3.6328-2.2266 3.9844-2.2266 4.1016 0.70312-1.4062 0.9375-1.0547 0.11719 0.11719-1.4062 1.6406-1.5234 1.7578-0.35156 0.35156-3.5156 3.8672-3.8672 3.6328-0.46875-0.23438 4.1016-2.4609 1.6406-1.4062-0.82031 0.35156-1.7578 1.0547-2.5781 1.6406-0.11719 0.11719-1.9922 1.1719-1.9922 1.0547-0.35156-0.58594 4.9219-1.5234 1.2891-0.58594-1.5234 0.35156-3.0469 0.82031-4.5703 1.2891-3.8672 0.9375 4.5703-0.23437-0.9375 0h-0.9375-1.5234-24.023-105.82-122.11c-22.5 0-45.117-0.58594-67.734 0h-1.0547c-12.656 0-23.438 10.781-23.438 23.438v150c0 56.719 0.11719 113.32 0 170.04v1.875 0.35156 1.6406c-0.23438 2.6953-0.11719 2.1094 0.35156-1.4062-0.11719 1.0547-0.35156 2.1094-0.70312 3.0469-0.11719 0.46875-1.0547 4.4531-1.4062 4.4531-0.11719 0 2.8125-4.6875 0.11719-0.70312-0.23437 0.35156-1.7578 3.2812-1.9922 3.2812 0.58594-0.82031 1.1719-1.5234 1.875-2.3438-0.70312 0.82031-1.2891 1.5234-1.9922 2.2266-0.23438 0.23438-3.0469 3.2812-3.3984 3.0469 0.82031-0.58594 1.5234-1.1719 2.3438-1.875-0.82031 0.58594-1.6406 1.1719-2.5781 1.6406-0.46875 0.23438-0.9375 0.46875-1.2891 0.70312-2.2266 1.0547-1.7578 0.9375 1.4062-0.46875-0.11719 0.70312-5.3906 1.6406-5.9766 1.7578-5.1562 1.4062 5.2734 0-0.11719 0h-1.7578-1.1719-6.6797-22.734-51.094-5.9766-1.1719-1.7578c-2.6953-0.23438-2.1094-0.11719 1.4062 0.35156-1.0547-0.11719-2.1094-0.35156-3.0469-0.70312-0.46875-0.11719-4.4531-1.0547-4.4531-1.4062 0.9375 0.35156 1.875 0.70312 2.8125 1.1719-0.9375-0.46875-1.875-0.9375-2.6953-1.4062-0.46875-0.23438-0.82031-0.58594-1.2891-0.82031-2.1094-1.4062-1.7578-1.0547 1.0547 0.9375-0.35156 0.11719-3.0469-2.8125-3.3984-3.0469-0.35156-0.35156-0.70313-0.70312-1.0547-1.1719-1.6406-1.875-1.2891-1.5234 0.82031 1.1719-0.11719 0-1.4062-2.2266-1.6406-2.5781-0.23438-0.46875-0.46875-0.9375-0.70313-1.2891-1.0547-2.2266-0.9375-1.7578 0.46875 1.4062-0.70312-0.11719-1.6406-5.3906-1.7578-5.9766-1.4062-5.1562 0 5.2734 0-0.11719v-1.6406-0.35156-2.1094-8.2031-32.227-102.42-173.79-3.1641c0-12.656-10.781-23.438-23.438-23.438h-150c-56.719 0-113.32 0.11719-170.04 0h-1.875-0.35156-1.6406c-2.6953-0.23438-2.1094-0.11719 1.4062 0.35156-1.0547-0.11719-2.1094-0.35156-3.0469-0.70313-0.46875-0.11719-4.4531-1.0547-4.4531-1.4062 0-0.11719 4.6875 2.8125 0.70312 0.11719-0.35156-0.23438-3.2812-1.7578-3.2812-1.9922 0.82031 0.58594 1.5234 1.1719 2.3438 1.875-0.82031-0.70312-1.5234-1.2891-2.2266-1.9922-0.23437-0.23438-3.2812-3.0469-3.0469-3.3984 0.58594 0.82031 1.1719 1.5234 1.875 2.3438-0.58594-0.82031-1.1719-1.6406-1.6406-2.5781-0.23437-0.46875-0.46875-0.9375-0.70312-1.2891-1.0547-2.2266-0.9375-1.7578 0.46875 1.4062-0.70313-0.11719-1.6406-5.3906-1.7578-5.9766-1.4062-5.1562 0 5.2734 0-0.11719v-1.7578-1.1719-6.6797-22.734-51.094-5.9766-1.1719-1.7578c0.23438-2.6953 0.11719-2.1094-0.35156 1.4062 0.11719-1.0547 0.35156-2.1094 0.70313-3.0469 0.11719-0.46875 1.0547-4.4531 1.4062-4.4531-0.35156 0.9375-0.70313 1.875-1.1719 2.8125 0.46875-0.9375 0.9375-1.875 1.4062-2.6953 0.23438-0.46875 0.58594-0.82031 0.82031-1.2891 1.4062-2.1094 1.0547-1.7578-0.9375 1.0547-0.11719-0.35156 2.8125-3.0469 3.0469-3.3984 0.35156-0.35156 0.70312-0.70312 1.1719-1.0547 1.875-1.6406 1.5234-1.2891-1.1719 0.82031 0-0.11719 2.2266-1.4062 2.5781-1.6406 0.46875-0.23438 0.9375-0.46875 1.2891-0.70312 2.2266-1.0547 1.7578-0.9375-1.4062 0.46875 0.11719-0.70312 5.3906-1.6406 5.9766-1.7578 5.1562-1.4062-5.2734 0 0.11719 0h1.6406 0.35156 2.1094 8.2031 32.227 102.42 173.79 3.1641c12.656 0 23.438-10.781 23.438-23.438v-150c0-56.719-0.11719-113.32 0-170.04v-1.875-0.35156-1.6406c0.23437-2.6953 0.11719-2.1094-0.35156 1.4062 0.11719-1.0547 0.35156-2.1094 0.70312-3.0469 0.11719-0.46875 1.0547-4.4531 1.4062-4.4531 0.11719 0-2.8125 4.6875-0.11719 0.70312 0.23438-0.35156 1.7578-3.2812 1.9922-3.2812-0.58594 0.82031-1.1719 1.5234-1.875 2.3438 0.70312-0.82031 1.2891-1.5234 1.9922-2.2266 0.23437-0.23438 3.0469-3.2812 3.3984-3.0469-0.82031 0.58594-1.5234 1.1719-2.3438 1.875 0.82031-0.58594 1.6406-1.1719 2.5781-1.6406 0.46875-0.23438 0.9375-0.46875 1.2891-0.70312 2.2266-1.0547 1.7578-0.9375-1.4062 0.46875 0.11719-0.70312 5.3906-1.6406 5.9766-1.7578 5.1562-1.4062-5.2734 0 0.11719 0h1.7578 1.1719 6.6797 22.734 51.094 5.9766 1.1719 1.7578c2.6953 0.23438 2.1094 0.11719-1.4062-0.35156 1.0547 0.11719 2.1094 0.35156 3.0469 0.70312 0.46875 0.11719 4.4531 1.0547 4.4531 1.4062-0.9375-0.35156-1.875-0.70312-2.8125-1.1719 0.9375 0.46875 1.875 0.9375 2.6953 1.4062 0.46875 0.23438 0.82031 0.58594 1.2891 0.82031 2.1094 1.4062 1.7578 1.0547-1.0547-0.9375 0.35156-0.11719 3.0469 2.8125 3.3984 3.0469 0.35156 0.35156 0.70312 0.70312 1.0547 1.1719 1.6406 1.875 1.2891 1.5234-0.82031-1.1719 0.11719 0 1.4062 2.2266 1.6406 2.5781 0.23437 0.46875 0.46875 0.9375 0.70312 1.2891 1.0547 2.2266 0.9375 1.7578-0.46875-1.4062 0.70313 0.11719 1.6406 5.3906 1.7578 5.9766 1.4062 5.1562 0-5.2734 0 0.11719v1.6406 0.35156 2.1094 8.2031 32.227 102.42 173.79 3.1641c0 12.656 10.781 23.438 23.438 23.438h123.4 177.42 20.039 1.2891c0.11719 0 3.2812 0 3.3984 0.11719-1.0547-0.11719-1.9922-0.35156-3.0469-0.46875 1.0547 0.11719 2.1094 0.35156 3.0469 0.70313 0.70312 0.23437 4.4531 0.9375 4.4531 1.4062-0.9375-0.35156-1.875-0.70313-2.8125-1.1719 0.9375 0.46875 1.875 0.9375 2.6953 1.4062 0.70312 0.35156 1.2891 0.82031 1.9922 1.1719 1.4062 0.9375 0.9375 0.46875-1.6406-1.4062 0.35156-0.11719 3.0469 2.8125 3.3984 3.0469 3.9844 4.1016 0.35156-0.11719 0.23437 0 0.23438-0.11719 2.2266 3.6328 2.3438 3.8672 2.5781 3.9844-1.0547-4.2188 0.11719 0.11719 0.35156 1.5234 0.82031 3.0469 1.2891 4.5703 0.46875 2.5781 0.46875 2.1094-0.11719-1.5234v2.8125c0.23438 12.305 10.547 24.023 23.438 23.438 12.539-0.58594 23.672-10.312 23.438-23.438-0.70312-34.219-27.773-61.523-62.109-62.109-3.5156-0.11719-7.1484 0-10.664 0h-69.141-194.53-47.93c7.8516 7.8516 15.586 15.586 23.438 23.438v-47.93-106.76-109.8c0-18.984 0.23438-38.086 0-57.07-0.35156-28.359-19.922-55.781-48.633-61.289-14.18-2.6953-29.18-1.5234-43.594-1.5234h-52.383c-7.0312 0-13.828 0.23437-20.859 1.6406-16.641 3.5156-32.227 15.469-40.195 30.469-10.664 20.039-7.7344 44.883-7.7344 66.914v102.07 112.62 67.383 3.2812c7.8516-7.8516 15.586-15.586 23.438-23.438h-47.93-106.76-109.8c-18.984 0-38.086-0.23438-57.07 0-28.359 0.35156-55.781 19.922-61.289 48.633-2.6953 14.18-1.5234 29.18-1.5234 43.594v52.383c0 7.0312 0.23437 13.828 1.6406 20.859 3.5156 16.641 15.469 32.227 30.469 40.195 20.039 10.664 44.883 7.7344 66.914 7.7344h102.07 112.62 67.383 3.2812c-7.8516-7.8516-15.586-15.586-23.438-23.438v47.93 106.76 109.8c0 18.984-0.23438 38.086 0 57.07 0.35156 28.359 19.922 55.781 48.633 61.289 14.18 2.6953 29.18 1.5234 43.594 1.5234h52.383c7.0312 0 13.828-0.23438 20.859-1.6406 16.641-3.5156 32.227-15.469 40.195-30.469 10.664-20.039 7.7344-44.883 7.7344-66.914v-102.07-112.62-67.383-3.2812l-23.438 23.438h57.773 122.58 111.68 27.422c25.664 0 49.453-13.477 59.648-37.617 7.1484-16.992 5.1562-36.445 5.1562-54.609v-55.195-3.75c0-12.305-10.781-24.023-23.438-23.438-12.539 0.46875-23.32 10.195-23.32 23.32z"/>
 </g>
</svg>
