<?xml version="1.0" encoding="UTF-8"?>
<svg width="1200pt" height="1200pt" version="1.1" viewBox="0 0 1200 1200" xmlns="http://www.w3.org/2000/svg">
 <path d="m751.14 391.43c-15.793 0.14062-29.27 5.8086-40.43 17.004l-110.71 110.71-110.71-110.71c-11.16-11.195-24.637-16.863-40.43-17.004-15.793 0.14062-29.27 5.8086-40.43 17.004-11.195 11.16-16.863 24.637-17.004 40.43 0.14062 15.793 5.8086 29.27 17.004 40.43l110.71 110.71-110.71 110.71c-11.195 11.16-16.863 24.637-17.004 40.43 0.14062 15.793 5.8086 29.27 17.004 40.43 11.16 11.195 24.637 16.738 40.43 16.625 15.793 0.11328 29.27-5.4297 40.43-16.625l110.71-110.71 110.71 110.71c11.16 11.195 24.637 16.738 40.43 16.625 15.793 0.11328 29.27-5.4297 40.43-16.625 11.195-11.16 16.738-24.637 16.625-40.43 0.11328-15.793-5.4297-29.27-16.625-40.43l-110.71-110.71 110.71-110.71c11.195-11.16 16.738-24.637 16.625-40.43 0.11328-15.793-5.4297-29.27-16.625-40.43-11.16-11.195-24.637-16.863-40.43-17.004z" fill="#4c1c95"/>
</svg>
