<?xml version="1.0" encoding="UTF-8"?>
<svg width="1200pt" height="1200pt" version="1.1" viewBox="0 0 1200 1200" xmlns="http://www.w3.org/2000/svg">
 <path d="m757.5 811.88-5.625-267.66c0-7.5 4.6875-17.344 10.781-22.031l20.625-15c0.46875 0 0.46875-0.46875 0.46875-0.46875l52.5-38.438c0.46875-0.46875 1.4062-0.9375 1.875-1.4062 15.938-13.594 25.312-45.469 10.312-63.281s-47.812-15-64.219-1.875l-70.312 59.062c-5.625 4.6875-16.406 7.0312-23.906 5.1562l-257.34-69.844c-7.5-1.875-17.812 0.46875-23.438 6.0938l-20.625 19.688c-5.625 5.1562-4.6875 12.188 2.3438 15.938l203.91 107.34c6.5625 3.75 7.5 10.312 1.875 15.469l-104.53 86.719h-3.2812l-103.12-11.719c-3.75-0.46875-7.9688 2.3438-8.9062 5.625l-7.9688 25.312c-0.9375 3.75 0.46875 7.9688 4.2188 9.8438l71.719 37.5c3.2812 1.875 7.0312 6.0938 7.5 9.8438l18.75 78.75c0.9375 3.75 4.6875 6.5625 8.4375 6.0938l26.25-1.4062c3.75 0 7.5-3.2812 7.9688-7.0312l13.594-103.12c0-0.9375 0.46875-2.3438 0.9375-3.2812l61.406-44.531c0.46875 0 0.46875-0.46875 0.9375-0.46875l47.812-34.688c6.0938-4.6875 12.656-1.875 14.531 5.1562l54.844 223.59c1.875 7.5 8.4375 9.8438 15 6.0938l23.906-15.469c6.0938-4.2188 11.25-14.062 10.781-21.562" fill="#FCFFFF"/>
</svg>
