<svg width="1500" height="1500" viewBox="0 0 1500 1500" fill="none" xmlns="http://www.w3.org/2000/svg">
<path d="M1174.25 1193.83C1187.04 1190.58 1199.41 1185.9 1211.15 1179.88C1212.81 1179.03 1214.53 1178.48 1216.15 1177.56C1222.95 1173.61 1229.47 1169.22 1235.68 1164.4C1237.58 1163 1239.53 1162.03 1241.41 1160.56L1262.6 1140.36C1265.1 1137.26 1267.6 1134.16 1271.45 1129.29C1273.58 1126.46 1275.38 1123.29 1277.33 1120.29C1278.6 1118.34 1279.83 1116.44 1281.13 1114.44V1114.43C1285.78 1106.74 1289.86 1098.73 1293.35 1090.45V1090.25C1297.17 1080.8 1300.15 1071.03 1302.28 1061.06L1446.71 376.657H1446.7C1448.21 369.241 1449.14 361.715 1449.48 354.157C1449.63 351.657 1449.9 348.881 1449.9 346.381V345.157C1449.9 343.381 1449.71 341.605 1449.63 339.834C1449.45 336.36 1449.28 332.907 1448.9 329.486C1448.68 327.71 1448.35 325.96 1448.08 324.21C1447.56 320.808 1446.98 317.434 1446.23 314.21C1445.83 312.486 1445.36 310.782 1444.91 309.058C1444.01 305.756 1443.06 302.506 1441.96 299.282C1441.39 297.605 1440.76 295.933 1440.11 294.282C1438.88 291.131 1437.56 288.032 1436.14 284.98C1435.36 283.329 1434.59 281.678 1433.64 279.98C1432.09 277.006 1430.41 274.079 1428.64 271.204C1427.69 269.631 1426.76 268.053 1425.76 266.506C1423.84 263.605 1421.76 260.809 1419.64 258.032C1418.76 256.881 1418.01 255.532 1417.14 254.532C1416.96 254.308 1416.74 254.105 1416.54 253.855C1413.57 250.22 1410.43 246.746 1407.09 243.428C1404.74 241.079 1402.24 238.928 1399.77 236.751C1398.42 235.574 1397.12 234.251 1395.74 233.199C1393.12 231.074 1390.42 229.126 1387.67 227.199C1386.37 226.272 1385.17 225.35 1383.77 224.449C1380.97 222.626 1378.09 220.897 1375.17 219.251C1373.74 218.449 1372.32 217.652 1370.85 216.902C1367.95 215.402 1365.02 213.975 1362.02 212.652C1360.35 211.928 1358.65 211.251 1357.02 210.579C1354.12 209.454 1351.22 208.329 1348.25 207.381C1346.25 206.73 1344.18 206.204 1342.12 205.631C1339.35 204.881 1336.57 204.079 1333.75 203.48C1330.93 202.881 1328.55 202.579 1325.93 202.178C1323.3 201.777 1321.1 201.329 1318.65 201.053C1314.18 200.579 1309.65 200.376 1305.08 200.303H1303.15L851.696 200.309C812.925 200.293 775.737 215.71 748.346 243.158C702.034 289.122 679.226 353.705 686.398 418.558L692.247 472.307L639.32 700.001H425.001C405.11 700.001 386.031 707.902 371.97 721.97C357.902 736.033 350 755.11 350 775.001V850.001C350 856.631 352.636 862.99 357.323 867.678C362.011 872.365 368.37 875.001 375.001 875.001H598.694L581.194 950.001H224.994C216.64 950.022 208.311 950.86 200.119 952.501C199.692 952.501 199.317 952.777 198.869 952.876C191.281 954.475 183.859 956.777 176.692 959.751C176.14 960.001 175.666 960.35 175.119 960.574C168.385 963.485 161.926 966.99 155.816 971.053C153.942 972.303 152.342 973.902 150.514 975.251H150.52C146.457 978.095 142.577 981.183 138.894 984.501C138.004 985.204 137.165 985.97 136.394 986.803C131.988 991.496 127.936 996.511 124.269 1001.8C123.342 1003.05 122.217 1004.1 121.368 1005.38C120.217 1007.1 119.519 1008.95 118.467 1010.7C111.03 1022.67 105.691 1035.83 102.691 1049.6C96.3892 1080.18 101.931 1112.01 118.191 1138.65C122.926 1146.89 128.65 1154.51 135.243 1161.35C136.519 1162.67 137.743 1163.85 139.144 1165.17V1165.18C162.134 1187.52 192.936 1200.01 224.994 1200H544.994L509.296 1325H315.75C292.531 1324.95 270.244 1334.16 253.828 1350.58C237.407 1366.99 228.203 1389.28 228.25 1412.5C228.312 1425.5 231.312 1438.32 237.026 1450H-0.000976562V1500H1500V1450H1110.2L1174.25 1193.83ZM475 775V825H400V775C400 768.37 402.636 762.01 407.323 757.323C412.01 752.635 418.37 750 425 750H479.599C476.641 758.005 475.083 766.464 475 775ZM1302.75 250H1303.17C1305.2 250 1307.1 250.448 1309.1 250.573H1309.1C1314.01 250.781 1318.9 251.359 1323.72 252.302C1326.6 252.927 1329.29 254 1332.1 254.802C1335.69 255.838 1339.22 257.083 1342.67 258.526C1345.5 259.802 1348.15 261.401 1350.83 262.927H1350.82C1353.99 264.646 1357.04 266.557 1359.97 268.651C1362.47 270.375 1364.6 272.302 1366.82 274.224C1369.8 276.849 1372.64 279.646 1375.3 282.599C1377.05 284.573 1378.75 286.573 1380.3 288.672V288.677C1382.97 292.271 1385.37 296.057 1387.5 300C1388.65 302.026 1389.87 304 1390.85 306.099C1392.79 310.406 1394.4 314.854 1395.67 319.401C1396.25 321.349 1397.05 323.203 1397.5 325.177C1398.56 330.281 1399.22 335.464 1399.44 340.677C1399.44 342.328 1399.92 343.875 1399.94 345.526C1399.81 350.031 1399.37 354.526 1398.62 358.974C1398.27 361.474 1398.35 363.823 1397.8 366.474L1253.29 1051.07C1251.89 1057.91 1249.89 1064.6 1247.29 1071.07L1247.14 1071.5C1247.14 1071.82 1246.82 1072.13 1246.69 1072.45H1246.69C1244.38 1077.98 1241.66 1083.32 1238.56 1088.45C1237.39 1090.42 1236.06 1092.32 1234.74 1094.23C1227.27 1105.37 1218.07 1115.24 1207.49 1123.48C1196.99 1131.64 1185.25 1138.06 1172.71 1142.5C1159.1 1147.51 1144.71 1150.05 1130.21 1150H675.494C655.54 1150.05 636.39 1142.18 622.234 1128.12C608.078 1114.05 600.083 1094.96 599.994 1075C600.082 1055.05 608.077 1035.95 622.234 1021.89C636.39 1007.83 655.54 999.956 675.494 1000H1051.75C1057.39 1000 1062.88 998.091 1067.3 994.575C1071.72 991.06 1074.82 986.153 1076.1 980.654L1100.62 875.003H1162.5C1193.76 875.003 1222.64 858.326 1238.27 831.254C1253.9 804.181 1253.9 770.827 1238.27 743.754C1222.64 716.681 1193.76 700.005 1162.5 700.005H1141.22L1192.32 480.685C1192.32 480.284 1192.79 478.383 1192.87 477.961V477.955C1193.28 475.607 1193.36 473.205 1193.12 470.83L1186.87 412.804V412.809C1181.39 363.069 1198.88 313.549 1234.37 278.289C1252.54 260.21 1277.12 250.049 1302.75 250.013L1302.75 250ZM975 825V775C975 768.37 977.636 762.01 982.323 757.323C987.01 752.635 993.37 750 1000 750H1162.51C1175.9 750 1188.28 757.146 1194.98 768.749C1201.68 780.353 1201.68 794.645 1194.98 806.249C1188.28 817.853 1175.9 824.998 1162.51 824.998L975 825ZM741.933 479.2C742.569 476.46 742.736 473.627 742.433 470.825L736.111 412.877H736.105C730.611 363.117 748.095 313.565 783.605 278.277C801.679 260.178 826.204 250.001 851.783 250.001H1192.64C1150.7 295.402 1130.47 356.736 1137.16 418.174L1140.58 449.997H803.211V499.997H1136.52L1090.02 699.997H875.018C855.127 699.997 836.048 707.898 821.987 721.966C807.919 736.029 800.018 755.106 800.018 774.997V849.997C800.018 856.627 802.653 862.987 807.341 867.674C812.028 872.362 818.388 874.997 825.018 874.997H1049.32L1031.82 949.997H632.651L741.933 479.2ZM929.6 750C926.642 758.005 925.085 766.464 925.001 775V825H850.001V775C850.001 768.37 852.637 762.01 857.324 757.323C862.012 752.635 868.371 750 875.001 750L929.6 750ZM525 825V775C525 768.37 527.636 762.01 532.323 757.323C537.01 752.635 543.37 750 550 750H627.724L610.224 825L525 825ZM597.099 1200H671.224L640 1325H561.401L597.099 1200ZM225.245 1150C208.204 1149.92 191.699 1144.02 178.469 1133.28C176.178 1131.59 173.99 1129.77 171.922 1127.82C170.824 1126.75 169.995 1125.32 168.975 1124.3L168.969 1124.3C166.522 1121.62 164.272 1118.76 162.245 1115.75C159.74 1111.89 157.589 1107.8 155.818 1103.55C153.912 1099.19 152.469 1094.64 151.521 1089.97C150.506 1085.05 149.995 1080.03 149.995 1075C149.959 1064.95 152.037 1055.02 156.094 1045.82C157.35 1043.02 158.777 1040.29 160.37 1037.65C161.12 1036.4 161.672 1035.15 162.469 1033.8C163.271 1032.45 164.37 1031.3 165.271 1030.18C167.324 1027.33 169.574 1024.62 171.995 1022.07L172.245 1021.85C186.324 1007.83 205.381 999.979 225.245 999.999H575.752C559.064 1021.44 550.003 1047.83 550.003 1075C550.003 1102.17 559.065 1128.56 575.752 1150L225.245 1150ZM686.965 1450H315.739C305.806 1450.03 296.269 1446.11 289.217 1439.11C282.17 1432.11 278.191 1422.6 278.144 1412.66C278.103 1402.73 282.004 1393.19 288.988 1386.13C296.098 1379.05 305.707 1375.05 315.738 1375H686.964C675.266 1398.63 675.268 1426.37 686.965 1450ZM722.741 1200H994.995L959.297 1325H691.497L722.741 1200ZM1058.67 1450H765.701C752.305 1450 739.925 1442.85 733.228 1431.25C726.53 1419.65 726.53 1405.35 733.228 1393.75C739.926 1382.15 752.307 1375 765.701 1375H978.208C983.646 1375 988.937 1373.23 993.276 1369.95C997.615 1366.68 1000.77 1362.08 1002.26 1356.85L1047.06 1200H1121.19L1058.67 1450Z" fill="url(#paint0_linear_29_25)" fill-opacity="0.878033"/>
<path d="M50 325V500C50.0573 539.765 65.88 577.88 94 606C122.12 634.12 160.235 649.943 200 650H350C389.771 649.958 427.901 634.145 456.021 606.021C484.147 577.901 499.959 539.771 500 500V150V147.974C499.469 108.547 483.427 70.9113 455.355 43.2139C427.281 15.5206 389.433 -0.00472161 350 0.000611725H200C150.729 0.354772 104.688 24.5846 76.5 65.0006C76.25 65.3756 75.9479 65.7246 75.6979 66.0996C73.6719 69.0474 71.875 72.1725 70.0729 75.2974C69.4739 76.3704 68.7499 77.3704 68.1458 78.4745C66.6718 81.1724 65.4479 84.0005 64.1198 86.7974C63.3698 88.3964 62.5209 89.9485 61.8177 91.5734C60.6666 94.3234 59.7187 97.1724 58.7187 100.001C58.0937 101.803 57.3438 103.527 56.7709 105.349C55.9479 108.001 55.3438 110.751 54.6719 113.475C54.1459 115.573 53.4948 117.6 53.073 119.725C52.6459 121.85 52.3959 124.073 52.073 126.251C51.6251 129.027 51.073 131.777 50.7709 134.625C50.573 136.553 50.5938 138.553 50.4688 140.5C50.2761 143.724 50.0001 146.823 50.0001 150L50 325ZM450 500C449.979 506.542 449.318 513.063 448.026 519.473C447.651 521.421 446.901 523.223 446.427 525.124C445.385 529.369 444.083 533.541 442.526 537.624C441.625 539.801 440.453 541.801 439.427 543.874C437.75 547.4 435.88 550.833 433.823 554.15C432.474 556.223 430.896 558.124 429.422 560.098H429.427C427.219 563.088 424.849 565.947 422.323 568.676C420.573 570.499 418.672 572.176 416.797 573.9H416.802C414.12 576.348 411.318 578.661 408.401 580.822C406.302 582.348 404.099 583.723 401.875 585.072C398.797 586.973 395.615 588.697 392.349 590.249C389.974 591.374 387.526 592.4 385.047 593.322H385.052C381.62 594.609 378.125 595.703 374.573 596.598C371.948 597.275 369.323 597.874 366.625 598.348C365.375 598.546 364.125 598.546 362.802 598.723C386.797 571.437 400.021 536.338 399.999 499.999V174.999H449.999L450 500ZM106.68 115C107.253 113.474 107.654 111.849 108.305 110.375C110.68 104.89 113.539 99.6249 116.852 94.6509C117.602 93.5259 118.529 92.578 119.352 91.4738C122.045 87.7238 124.982 84.1561 128.154 80.8019C129.628 79.2759 131.279 77.9009 132.852 76.453V76.4478C135.68 73.8437 138.654 71.4009 141.753 69.1249C143.602 67.7759 145.555 66.6249 147.503 65.3019C150.732 63.3123 154.071 61.4998 157.503 59.8749C159.555 58.9009 161.602 57.927 163.753 57.0727C167.607 55.6039 171.545 54.3749 175.555 53.4009C177.503 52.9269 179.378 52.2759 181.357 51.9009H181.352C187.493 50.6769 193.743 50.0415 200.003 49.9998H350.003C356.3 50.0311 362.576 50.6665 368.752 51.9009C370.726 52.2759 372.601 52.9269 374.554 53.4009C378.559 54.3748 382.502 55.6039 386.351 57.0727C388.502 57.9217 390.549 58.8957 392.601 59.8749C396.033 61.4999 399.372 63.3123 402.601 65.3019C404.549 66.5259 406.502 67.8019 408.351 69.1249C411.45 71.4009 414.424 73.8437 417.252 76.4478C418.825 77.8957 420.476 79.2707 421.95 80.7967V80.8019C425.122 84.1561 428.059 87.7238 430.752 91.4738C431.554 92.5728 432.476 93.5259 433.252 94.6509C436.565 99.6249 439.424 104.89 441.804 110.375C442.455 111.849 442.856 113.474 443.429 115C444.643 118.276 445.674 121.614 446.528 125H103.582C104.436 121.614 105.472 118.276 106.686 115H106.68ZM100.003 175H350.003V500C350.003 526.521 339.467 551.959 320.711 570.708C301.962 589.463 276.523 600 250.003 600H200.003C177.894 599.922 156.43 592.521 138.976 578.948C121.523 565.38 109.055 546.407 103.528 525H225.002C251.799 525 276.554 510.703 289.955 487.5C303.351 464.297 303.351 435.703 289.955 412.5C276.554 389.297 251.799 375 225.002 375H221.825C216.267 353.547 203.742 334.541 186.221 320.969C168.694 307.396 147.169 300.021 125.002 300H100.002L100.003 175ZM100.003 350H125.003C138.263 350 150.982 355.266 160.358 364.645C169.738 374.02 175.003 386.739 175.003 400C175.003 406.63 177.638 412.99 182.326 417.677C187.013 422.365 193.373 425 200.003 425H225.003C233.935 425 242.186 429.766 246.654 437.5C251.117 445.235 251.117 454.766 246.654 462.5C242.185 470.235 233.935 475 225.003 475H100.003L100.003 350Z" fill="url(#paint1_linear_29_25)" fill-opacity="0.878033"/>
<defs>
<linearGradient id="paint0_linear_29_25" x1="97" y1="293.015" x2="981.565" y2="1649.12" gradientUnits="userSpaceOnUse">
<stop stop-color="#FCFFFF"/>
<stop offset="0.0001" stop-color="#7BDFC9" stop-opacity="0.855"/>
<stop offset="0.0002" stop-color="#7BDFC9" stop-opacity="0.855"/>
<stop offset="0.381" stop-color="#FCFFFF"/>
</linearGradient>
<linearGradient id="paint1_linear_29_25" x1="79.1003" y1="46.367" x2="560.794" y2="489.349" gradientUnits="userSpaceOnUse">
<stop stop-color="#FCFFFF"/>
<stop offset="0.0001" stop-color="#7BDFC9" stop-opacity="0.855"/>
<stop offset="0.0002" stop-color="#7BDFC9" stop-opacity="0.855"/>
<stop offset="0.381" stop-color="#FCFFFF"/>
</linearGradient>
</defs>
</svg>
