<svg xmlns="http://www.w3.org/2000/svg" viewBox="76.41 130.32 201 201">
  <g class="text" id="g76" transform="matrix(1, 0, 0, 1, 76.408318, 130.171539)" style="fill: rgb(32, 40, 67); fill-rule: evenodd;">
    <g id="g50">
      <path d="M 195.58594,133.10156 C 213.51172,80.585938 185.46875,23.484375 132.95312,5.558594 80.4375,-12.363281 23.335938,15.679688 5.414062,68.191406 -12.511719,120.70703 15.53125,177.80859 68.046875,195.73437 120.5625,213.65625 177.66406,185.61328 195.58594,133.10156" id="path48"/>
    </g>
    <path class="img" d="M 15.425781,154.10547 C 31.0625,146.64453 84.28125,120.52344 94.769531,114.375 c 8.613279,-5.01953 21.441409,-12.42187 21.441409,-12.42187 l 5.4414,11.08984 8.3086,54.65234 6.34765,-3.66406 4.21875,-76.335938 c 12.82422,-8.015624 24.1211,-15.816406 35.94532,-23.976562 4.33593,-2.992188 8.74218,-6.035156 13.3164,-9.152344 -1.44922,-2.800781 -3.02734,-5.53125 -4.72656,-8.175781 -4.98828,2.402344 -9.82422,4.695313 -14.57813,6.953125 C 157.5,59.503906 145.09766,65.386719 131.74219,72.480469 l -68.214846,-34.507813 -6.347656,3.664063 43.175782,34.519531 6.87109,10.238281 0.0117,0.01953 c 0,0 -12.824218,7.40625 -21.480468,12.359376 -10.566406,6.007813 -59.808593,39.042973 -74.082031,48.847653 1.171875,2.21094 2.421875,4.3711 3.75,6.48438" id="path54" style="fill: rgb(255, 201, 76);"/>
  </g>
</svg>