<?xml version="1.0" encoding="utf-8"?>
<svg viewBox="-376.452 18.166 399.284 251.868" width="399.284px" height="251.868px" xmlns="http://www.w3.org/2000/svg">
  <g id="g2247" transform="matrix(1.995781, 0, 0, 1.995781, -566.187378, -169.038132)">
    <path class="st0" d="M 195.1,220 C 197.2,220 199.2,219.5 201.1,218.4 L 223,205.8 C 227.4,203.3 232.5,202.2 237.6,202.8 C 264.2,205.9 282.8,210.9 288.3,212.5 C 289.4,212.8 290.7,212.4 291.4,211.5 C 292.3,210.4 293.4,208.6 294.3,206 C 295.1,203.5 295.2,201.4 295.1,199.9 C 295,198.7 294.2,197.6 293,197.3 C 284.4,194.8 246.3,184.5 195.1,184.5 C 143.9,184.5 105.8,194.8 97.2,197.3 C 96,197.6 95.2,198.7 95.1,199.9 C 95,201.3 95.1,203.4 95.9,206 C 96.7,208.6 97.9,210.4 98.8,211.5 C 99.5,212.4 100.8,212.8 101.9,212.5 C 107.4,210.9 126.1,205.9 152.6,202.8 C 157.7,202.2 162.8,203.3 167.2,205.8 L 189.1,218.4 C 191,219.5 193.1,220 195.1,220 z " id="path2249" style="fill:#0770e3"/>
    <path class="st0" d="M 158.6,149.1 C 159.8,151.2 161.7,152.6 163.9,153.2 C 166.1,153.8 168.4,153.5 170.5,152.3 C 172.6,151.1 174,149.2 174.6,147 C 175.2,144.8 174.9,142.5 173.7,140.4 L 154,106.3 C 153.4,105.2 152.1,104.8 150.9,104.9 C 149.3,105 147.1,105.8 144.5,107.3 C 141.9,108.8 140.1,110.3 139.2,111.6 C 138.5,112.6 138.3,113.9 138.9,115 L 158.6,149.1 z " id="path2251" style="fill:#0770e3"/>
    <path class="st0" d="M 140.6,173.5 C 142.7,174.7 145.1,174.9 147.2,174.4 C 149.4,173.8 151.3,172.4 152.5,170.3 C 153.7,168.2 153.9,165.8 153.4,163.7 C 152.9,161.6 151.4,159.6 149.3,158.4 L 115.2,138.7 C 114.1,138.1 112.8,138.3 111.8,139 C 110.5,139.9 109,141.7 107.5,144.3 C 106,146.9 105.2,149.1 105.1,150.7 C 105,152 105.5,153.2 106.5,153.8 L 140.6,173.5 z " id="path2253" style="fill:#0770e3"/>
    <path class="st0" d="M 203.8,137 C 203.8,139.4 202.8,141.6 201.3,143.2 C 199.7,144.8 197.6,145.7 195.1,145.7 C 192.7,145.7 190.5,144.7 188.9,143.2 C 187.3,141.6 186.4,139.5 186.4,137 L 186.4,97.7 C 186.4,96.4 187.2,95.4 188.4,94.9 C 189.8,94.2 192.1,93.8 195.1,93.8 C 198.1,93.8 200.4,94.2 201.8,94.9 C 202.9,95.5 203.8,96.4 203.8,97.7 L 203.8,137 z " id="path2255" style="fill:#0770e3"/>
    <path class="st0" d="M 231.6,149.1 C 230.4,151.2 228.5,152.6 226.3,153.2 C 224.1,153.8 221.8,153.5 219.7,152.3 C 217.6,151.1 216.2,149.2 215.6,147 C 215,144.8 215.3,142.5 216.5,140.4 L 236.2,106.3 C 236.8,105.2 238.1,104.8 239.3,104.9 C 240.9,105 243.1,105.8 245.7,107.3 C 248.3,108.8 250.1,110.3 251,111.6 C 251.7,112.6 251.9,113.9 251.3,115 L 231.6,149.1 z " id="path2257" style="fill:#0770e3"/>
    <path class="st0" d="M 249.6,173.5 C 247.5,174.7 245.1,174.9 243,174.4 C 240.8,173.8 238.9,172.4 237.7,170.3 C 236.5,168.2 236.3,165.8 236.8,163.7 C 237.4,161.5 238.8,159.6 240.9,158.4 L 275,138.7 C 276.1,138.1 277.4,138.3 278.4,139 C 279.7,139.9 281.2,141.7 282.7,144.3 C 284.2,146.9 285,149.1 285.1,150.7 C 285.2,152 284.7,153.2 283.7,153.8 L 249.6,173.5 z " id="path2259" style="fill:#0770e3"/>
  </g>
</svg>